<?xml version="1.0" encoding="UTF-8"?>
<svg width="83px" height="96px" viewBox="0 0 83 96" version="1.1" xmlns="http://www.w3.org/2000/svg" xmlns:xlink="http://www.w3.org/1999/xlink">
    <!-- Generator: Sketch 61.2 (89653) - https://sketch.com -->
    <title>Path Copy</title>
    <desc>Created with Sketch.</desc>
    <g id="Eater" stroke="none" stroke-width="1" fill="none" fill-rule="evenodd">
        <g id="Artboard-3-Copy-2" transform="translate(-6848.000000, -5804.000000)" fill="#000000" fill-rule="nonzero">
            <path d="M6859.65714,5849.94286 L6882.28571,5827.31429 L6882.28571,5893.14286 C6882.28571,5897.25714 6885.02857,5900 6889.14286,5900 C6893.25714,5900 6896,5897.25714 6896,5893.14286 L6896,5827.31429 L6918.62857,5849.94286 C6921.37143,5852.68571 6925.48571,5852.68571 6928.22857,5849.94286 C6930.97143,5847.2 6930.97143,5843.08571 6928.22857,5840.34286 L6893.94286,5806.05714 C6892.57143,5804.68571 6891.2,5804 6889.14286,5804 C6887.08571,5804 6885.71429,5804.68571 6884.34286,5806.05714 L6850.05714,5840.34286 C6847.31429,5843.08571 6847.31429,5847.2 6850.05714,5849.94286 C6852.8,5852.68571 6856.91429,5852.68571 6859.65714,5849.94286 Z" id="Path-Copy" transform="translate(6889.142857, 5852.000000) rotate(180.000000) translate(-6889.142857, -5852.000000) "></path>
        </g>
    </g>
</svg>