<?xml version="1.0" encoding="UTF-8"?>
<svg width="97px" height="84px" viewBox="0 0 97 84" version="1.1" xmlns="http://www.w3.org/2000/svg" xmlns:xlink="http://www.w3.org/1999/xlink">
    <!-- Generator: Sketch 63.1 (92452) - https://sketch.com -->
    <title>Path Copy 2</title>
    <desc>Created with Sketch.</desc>
    <g id="Eater" stroke="none" stroke-width="1" fill="none" fill-rule="evenodd">
        <g id="Artboard-3-Copy-2" transform="translate(-6696.000000, -5958.000000)" fill="#000000" fill-rule="nonzero">
            <path d="M6714.65714,5997.94286 L6737.28571,5975.31429 L6737.28571,6041.14286 C6737.28571,6045.25714 6740.02857,6048 6744.14286,6048 C6748.25714,6048 6751,6045.25714 6751,6041.14286 L6751,5975.31429 L6773.62857,5997.94286 C6776.37143,6000.68571 6780.48571,6000.68571 6783.22857,5997.94286 C6785.97143,5995.2 6785.97143,5991.08571 6783.22857,5988.34286 L6748.94286,5954.05714 C6747.57143,5952.68571 6746.2,5952 6744.14286,5952 C6742.08571,5952 6740.71429,5952.68571 6739.34286,5954.05714 L6705.05714,5988.34286 C6702.31429,5991.08571 6702.31429,5995.2 6705.05714,5997.94286 C6707.8,6000.68571 6711.91429,6000.68571 6714.65714,5997.94286 Z" id="Path-Copy-2" transform="translate(6744.142857, 6000.000000) rotate(-90.000000) translate(-6744.142857, -6000.000000) "></path>
        </g>
    </g>
</svg>